<?xml version="1.0"?>
<!-- Generated by SVGo and Plotinum VG -->
<svg width="12.8in" height="4in"
	xmlns="http://www.w3.org/2000/svg"
	xmlns:xlink="http://www.w3.org/1999/xlink">
<g transform="scale(1, -1) translate(0, -565)">
<path d="M0,0L1250,0L1250,675L0,675Z" style="fill:#FFFFFF" />
<path d="M6.25,234.62L6.25,476.89" style="fill:none;stroke:#329BF0;stroke-width:2.5" />
<path d="M12.464,251.13L12.464,450.84" style="fill:none;stroke:#329CF0;stroke-width:2.5" />
<path d="M18.678,234.68L18.678,431.13" style="fill:none;stroke:#329DF0;stroke-width:2.5" />
<path d="M24.892,246.9L24.892,439.6" style="fill:none;stroke:#329EF0;stroke-width:2.5" />
<path d="M31.106,238.21L31.106,431.71" style="fill:none;stroke:#329FF0;stroke-width:2.5" />
<path d="M37.32,254.98L37.32,422.63" style="fill:none;stroke:#32A0F0;stroke-width:2.5" />
<path d="M43.535,255.08L43.535,434.88" style="fill:none;stroke:#32A1F0;stroke-width:2.5" />
<path d="M49.749,228.98L49.749,451.56" style="fill:none;stroke:#32A2F0;stroke-width:2.5" />
<path d="M55.963,235.37L55.963,454.15" style="fill:none;stroke:#32A3F0;stroke-width:2.5" />
<path d="M62.177,275.35L62.177,443.84" style="fill:none;stroke:#32A4F0;stroke-width:2.5" />
<path d="M68.391,245.77L68.391,415.02" style="fill:none;stroke:#32A5F0;stroke-width:2.5" />
<path d="M74.605,254.45L74.605,426.97" style="fill:none;stroke:#32A6F0;stroke-width:2.5" />
<path d="M80.819,254.26L80.819,421.26" style="fill:none;stroke:#32A7F0;stroke-width:2.5" />
<path d="M87.033,287.43L87.033,397.94" style="fill:none;stroke:#32A8F0;stroke-width:2.5" />
<path d="M93.247,309.63L93.247,379.05" style="fill:none;stroke:#32A9F0;stroke-width:2.5" />
<path d="M99.461,324.62L99.461,351.99" style="fill:none;stroke:#32AAF0;stroke-width:2.5" />
<path d="M105.68,332.17L105.68,347.34" style="fill:none;stroke:#32ABF0;stroke-width:2.5" />
<path d="M111.89,335.28L111.89,348.62" style="fill:none;stroke:#32ACF0;stroke-width:2.5" />
<path d="M118.1,336.93L118.1,344.53" style="fill:none;stroke:#32ADF0;stroke-width:2.5" />
<path d="M124.32,338.8L124.32,342.33" style="fill:none;stroke:#32AEF0;stroke-width:2.5" />
<path d="M130.53,339.85L130.53,341.39" style="fill:none;stroke:#32AFF0;stroke-width:2.5" />
<path d="M136.75,340.47L136.75,340.75" style="fill:none;stroke:#32B0F0;stroke-width:2.5" />
<path d="M142.96,340.62L142.96,340.63" style="fill:none;stroke:#32B1F0;stroke-width:2.5" />
<path d="M149.17,340.62L149.17,340.63" style="fill:none;stroke:#32B2F0;stroke-width:2.5" />
<path d="M155.39,337.01L155.39,344.05" style="fill:none;stroke:#32B3F0;stroke-width:2.5" />
<path d="M161.6,323.02L161.6,360.05" style="fill:none;stroke:#32B4F0;stroke-width:2.5" />
<path d="M167.82,326.52L167.82,358.08" style="fill:none;stroke:#32B5F0;stroke-width:2.5" />
<path d="M174.03,326.52L174.03,355.59" style="fill:none;stroke:#32B6F0;stroke-width:2.5" />
<path d="M180.24,331.5L180.24,349.47" style="fill:none;stroke:#32B7F0;stroke-width:2.5" />
<path d="M186.46,333.13L186.46,348.62" style="fill:none;stroke:#32B8F0;stroke-width:2.5" />
<path d="M192.67,335.28L192.67,345.06" style="fill:none;stroke:#32B9F0;stroke-width:2.5" />
<path d="M198.89,338.46L198.89,342.89" style="fill:none;stroke:#32BAF0;stroke-width:2.5" />
<path d="M205.1,339.36L205.1,341.71" style="fill:none;stroke:#32BBF0;stroke-width:2.5" />
<path d="M211.32,340.06L211.32,341.18" style="fill:none;stroke:#32BCF0;stroke-width:2.5" />
<path d="M217.53,340.62L217.53,340.63" style="fill:none;stroke:#32BDF0;stroke-width:2.5" />
<path d="M223.74,340.62L223.74,340.63" style="fill:none;stroke:#32BEF0;stroke-width:2.5" />
<path d="M229.96,340.62L229.96,340.63" style="fill:none;stroke:#32BFF0;stroke-width:2.5" />
<path d="M236.17,331.31L236.17,349.43" style="fill:none;stroke:#32C0F0;stroke-width:2.5" />
<path d="M242.39,326.41L242.39,356.32" style="fill:none;stroke:#32C1F0;stroke-width:2.5" />
<path d="M248.6,329.22L248.6,352.71" style="fill:none;stroke:#32C2F0;stroke-width:2.5" />
<path d="M254.81,332.17L254.81,351.22" style="fill:none;stroke:#32C3F0;stroke-width:2.5" />
<path d="M261.03,333.78L261.03,346.07" style="fill:none;stroke:#32C4F0;stroke-width:2.5" />
<path d="M267.24,336.3L267.24,347.08" style="fill:none;stroke:#32C5F0;stroke-width:2.5" />
<path d="M273.46,337.64L273.46,343.78" style="fill:none;stroke:#32C6F0;stroke-width:2.5" />
<path d="M279.67,339.16L279.67,342.01" style="fill:none;stroke:#32C7F0;stroke-width:2.5" />
<path d="M285.88,340L285.88,341.24" style="fill:none;stroke:#32C8F0;stroke-width:2.5" />
<path d="M292.1,340.54L292.1,340.72" style="fill:none;stroke:#32C9F0;stroke-width:2.5" />
<path d="M298.31,340.62L298.31,340.63" style="fill:none;stroke:#32CAF0;stroke-width:2.5" />
<path d="M304.53,340.62L304.53,340.63" style="fill:none;stroke:#32CBF0;stroke-width:2.5" />
<path d="M310.74,213.56L310.74,435.93" style="fill:none;stroke:#32CCF0;stroke-width:2.5" />
<path d="M316.95,203.74L316.95,530.78" style="fill:none;stroke:#32CDF0;stroke-width:2.5" />
<path d="M323.17,218.91L323.17,555.93" style="fill:none;stroke:#32CEF0;stroke-width:2.5" />
<path d="M329.38,234.06L329.38,488.04" style="fill:none;stroke:#32CFF0;stroke-width:2.5" />
<path d="M335.6,187.61L335.6,513.69" style="fill:none;stroke:#32D0F0;stroke-width:2.5" />
<path d="M341.81,199.53L341.81,460" style="fill:none;stroke:#32D1F0;stroke-width:2.5" />
<path d="M348.03,243.71L348.03,424.01" style="fill:none;stroke:#32D2F0;stroke-width:2.5" />
<path d="M354.24,270.43L354.24,424.58" style="fill:none;stroke:#32D3F0;stroke-width:2.5" />
<path d="M360.45,274.37L360.45,414.25" style="fill:none;stroke:#32D4F0;stroke-width:2.5" />
<path d="M366.67,281.87L366.67,388.88" style="fill:none;stroke:#32D5F0;stroke-width:2.5" />
<path d="M372.88,293.87L372.88,382.24" style="fill:none;stroke:#32D6F0;stroke-width:2.5" />
<path d="M379.1,307.4L379.1,380.85" style="fill:none;stroke:#32D7F0;stroke-width:2.5" />
<path d="M385.31,300.03L385.31,375.75" style="fill:none;stroke:#32D8F0;stroke-width:2.5" />
<path d="M391.52,305.13L391.52,383.68" style="fill:none;stroke:#32D9F0;stroke-width:2.5" />
<path d="M397.74,298.65L397.74,383.32" style="fill:none;stroke:#32DAF0;stroke-width:2.5" />
<path d="M403.95,298.22L403.95,378.52" style="fill:none;stroke:#32DBF0;stroke-width:2.5" />
<path d="M410.17,307.19L410.17,378.18" style="fill:none;stroke:#32DCF0;stroke-width:2.5" />
<path d="M416.38,301.37L416.38,369.97" style="fill:none;stroke:#32DDF0;stroke-width:2.5" />
<path d="M422.59,305.39L422.59,368.91" style="fill:none;stroke:#32DEF0;stroke-width:2.5" />
<path d="M428.81,320.02L428.81,364.45" style="fill:none;stroke:#32DFF0;stroke-width:2.5" />
<path d="M435.02,325.45L435.02,361.31" style="fill:none;stroke:#32E0F0;stroke-width:2.5" />
<path d="M441.24,330.21L441.24,354.91" style="fill:none;stroke:#32E1F0;stroke-width:2.5" />
<path d="M447.45,332.22L447.45,352.66" style="fill:none;stroke:#32E0F0;stroke-width:2.5" />
<path d="M453.67,335.39L453.67,349.76" style="fill:none;stroke:#32DFF0;stroke-width:2.5" />
<path d="M459.88,333.78L459.88,345.96" style="fill:none;stroke:#32DEF0;stroke-width:2.5" />
<path d="M466.09,329.06L466.09,348.56" style="fill:none;stroke:#32DDF0;stroke-width:2.5" />
<path d="M472.31,325.38L472.31,357.78" style="fill:none;stroke:#32DCF0;stroke-width:2.5" />
<path d="M478.52,326.71L478.52,355.74" style="fill:none;stroke:#32DBF0;stroke-width:2.5" />
<path d="M484.74,328.55L484.74,353.7" style="fill:none;stroke:#32DAF0;stroke-width:2.5" />
<path d="M490.95,332.52L490.95,348.79" style="fill:none;stroke:#32D9F0;stroke-width:2.5" />
<path d="M497.16,334.14L497.16,347.87" style="fill:none;stroke:#32D8F0;stroke-width:2.5" />
<path d="M503.38,336.2L503.38,345.01" style="fill:none;stroke:#32D7F0;stroke-width:2.5" />
<path d="M509.59,338.48L509.59,342.84" style="fill:none;stroke:#32D6F0;stroke-width:2.5" />
<path d="M515.81,339.6L515.81,341.66" style="fill:none;stroke:#32D5F0;stroke-width:2.5" />
<path d="M522.02,340.19L522.02,341.05" style="fill:none;stroke:#32D4F0;stroke-width:2.5" />
<path d="M528.23,340.55L528.23,340.73" style="fill:none;stroke:#32D3F0;stroke-width:2.5" />
<path d="M534.45,340.6L534.45,340.65" style="fill:none;stroke:#32D2F0;stroke-width:2.5" />
<path d="M540.66,340.62L540.66,340.63" style="fill:none;stroke:#32D1F0;stroke-width:2.5" />
<path d="M546.88,332.68L546.88,348.13" style="fill:none;stroke:#32D0F0;stroke-width:2.5" />
<path d="M553.09,328.5L553.09,354.01" style="fill:none;stroke:#32CFF0;stroke-width:2.5" />
<path d="M559.3,330.91L559.3,350.94" style="fill:none;stroke:#32CEF0;stroke-width:2.5" />
<path d="M565.52,333.42L565.52,349.67" style="fill:none;stroke:#32CDF0;stroke-width:2.5" />
<path d="M571.73,334.79L571.73,345.26" style="fill:none;stroke:#32CCF0;stroke-width:2.5" />
<path d="M577.95,336.95L577.95,346.13" style="fill:none;stroke:#32CBF0;stroke-width:2.5" />
<path d="M584.16,338.58L584.16,343.31" style="fill:none;stroke:#32CAF0;stroke-width:2.5" />
<path d="M590.38,339.39L590.38,341.73" style="fill:none;stroke:#32C9F0;stroke-width:2.5" />
<path d="M596.59,340.09L596.59,341.14" style="fill:none;stroke:#32C8F0;stroke-width:2.5" />
<path d="M602.8,340.58L602.8,340.67" style="fill:none;stroke:#32C7F0;stroke-width:2.5" />
<path d="M609.02,340.62L609.02,340.63" style="fill:none;stroke:#32C6F0;stroke-width:2.5" />
<path d="M615.23,340.62L615.23,340.63" style="fill:none;stroke:#32C5F0;stroke-width:2.5" />
<path d="M621.45,252.16L621.45,453.34" style="fill:none;stroke:#32C4F0;stroke-width:2.5" />
<path d="M627.66,235.24L627.66,475.89" style="fill:none;stroke:#32C3F0;stroke-width:2.5" />
<path d="M633.87,235.53L633.87,450.18" style="fill:none;stroke:#32C2F0;stroke-width:2.5" />
<path d="M640.09,250.89L640.09,430.52" style="fill:none;stroke:#32C1F0;stroke-width:2.5" />
<path d="M646.3,238.58L646.3,438.56" style="fill:none;stroke:#32C0F0;stroke-width:2.5" />
<path d="M652.52,258.99L652.52,431.1" style="fill:none;stroke:#32BFF0;stroke-width:2.5" />
<path d="M658.73,255.06L658.73,422.12" style="fill:none;stroke:#32BEF0;stroke-width:2.5" />
<path d="M664.94,262.7L664.94,434.86" style="fill:none;stroke:#32BDF0;stroke-width:2.5" />
<path d="M671.16,229.03L671.16,454.15" style="fill:none;stroke:#32BCF0;stroke-width:2.5" />
<path d="M677.37,235.37L677.37,430.7" style="fill:none;stroke:#32BBF0;stroke-width:2.5" />
<path d="M683.59,265L683.59,443.84" style="fill:none;stroke:#32BAF0;stroke-width:2.5" />
<path d="M689.8,245.77L689.8,426.97" style="fill:none;stroke:#32B9F0;stroke-width:2.5" />
<path d="M696.01,254.26L696.01,425.76" style="fill:none;stroke:#32B8F0;stroke-width:2.5" />
<path d="M702.23,272.17L702.23,423.35" style="fill:none;stroke:#32B7F0;stroke-width:2.5" />
<path d="M708.44,284.75L708.44,375.22" style="fill:none;stroke:#32B6F0;stroke-width:2.5" />
<path d="M714.66,322.96L714.66,381.69" style="fill:none;stroke:#32B5F0;stroke-width:2.5" />
<path d="M720.87,323.73L720.87,354.51" style="fill:none;stroke:#32B4F0;stroke-width:2.5" />
<path d="M727.09,330.54L727.09,348.64" style="fill:none;stroke:#32B3F0;stroke-width:2.5" />
<path d="M733.3,334.25L733.3,350.16" style="fill:none;stroke:#32B2F0;stroke-width:2.5" />
<path d="M739.51,337.08L739.51,345.28" style="fill:none;stroke:#32B1F0;stroke-width:2.5" />
<path d="M745.73,338.49L745.73,342.54" style="fill:none;stroke:#32B0F0;stroke-width:2.5" />
<path d="M751.94,339.7L751.94,341.42" style="fill:none;stroke:#32AFF0;stroke-width:2.5" />
<path d="M758.16,340.58L758.16,340.67" style="fill:none;stroke:#32AEF0;stroke-width:2.5" />
<path d="M764.37,340.62L764.37,340.63" style="fill:none;stroke:#32ADF0;stroke-width:2.5" />
<path d="M770.58,340.62L770.58,340.63" style="fill:none;stroke:#32ACF0;stroke-width:2.5" />
<path d="M776.8,324.76L776.8,353.89" style="fill:none;stroke:#32ABF0;stroke-width:2.5" />
<path d="M783.01,316.41L783.01,367.35" style="fill:none;stroke:#32AAF0;stroke-width:2.5" />
<path d="M789.23,322.65L789.23,360.93" style="fill:none;stroke:#32A9F0;stroke-width:2.5" />
<path d="M795.44,321.21L795.44,361.2" style="fill:none;stroke:#32A8F0;stroke-width:2.5" />
<path d="M801.65,328.06L801.65,352.79" style="fill:none;stroke:#32A7F0;stroke-width:2.5" />
<path d="M807.87,334.46L807.87,351.62" style="fill:none;stroke:#32A6F0;stroke-width:2.5" />
<path d="M814.08,333.27L814.08,346.1" style="fill:none;stroke:#32A5F0;stroke-width:2.5" />
<path d="M820.3,337.72L820.3,343.72" style="fill:none;stroke:#32A4F0;stroke-width:2.5" />
<path d="M826.51,338.9L826.51,341.91" style="fill:none;stroke:#32A3F0;stroke-width:2.5" />
<path d="M832.73,340.14L832.73,341.25" style="fill:none;stroke:#32A2F0;stroke-width:2.5" />
<path d="M838.94,340.62L838.94,340.63" style="fill:none;stroke:#32A1F0;stroke-width:2.5" />
<path d="M845.15,340.62L845.15,340.63" style="fill:none;stroke:#32A0F0;stroke-width:2.5" />
<path d="M851.37,340.62L851.37,340.63" style="fill:none;stroke:#329FF0;stroke-width:2.5" />
<path d="M857.58,316.41L857.58,367.35" style="fill:none;stroke:#329EF0;stroke-width:2.5" />
<path d="M863.8,318.62L863.8,364.63" style="fill:none;stroke:#329DF0;stroke-width:2.5" />
<path d="M870.01,321.21L870.01,361.2" style="fill:none;stroke:#329CF0;stroke-width:2.5" />
<path d="M876.22,328.06L876.22,358.67" style="fill:none;stroke:#329BF0;stroke-width:2.5" />
<path d="M882.44,328.98L882.44,349.89" style="fill:none;stroke:#329CF0;stroke-width:2.5" />
<path d="M888.65,333.27L888.65,351.62" style="fill:none;stroke:#329DF0;stroke-width:2.5" />
<path d="M894.87,336.79L894.87,345.11" style="fill:none;stroke:#329EF0;stroke-width:2.5" />
<path d="M901.08,338.15L901.08,342.41" style="fill:none;stroke:#329FF0;stroke-width:2.5" />
<path d="M907.29,339.56L907.29,341.53" style="fill:none;stroke:#32A0F0;stroke-width:2.5" />
<path d="M913.51,340.61L913.51,340.65" style="fill:none;stroke:#32A1F0;stroke-width:2.5" />
<path d="M919.72,340.62L919.72,340.63" style="fill:none;stroke:#32A2F0;stroke-width:2.5" />
<path d="M925.94,340.62L925.94,340.63" style="fill:none;stroke:#32A3F0;stroke-width:2.5" />
<path d="M932.15,218.19L932.15,446.52" style="fill:none;stroke:#32A4F0;stroke-width:2.5" />
<path d="M938.36,199.55L938.36,561.59" style="fill:none;stroke:#32A5F0;stroke-width:2.5" />
<path d="M944.58,217.95L944.58,441.44" style="fill:none;stroke:#32A6F0;stroke-width:2.5" />
<path d="M950.79,230.39L950.79,515.21" style="fill:none;stroke:#32A7F0;stroke-width:2.5" />
<path d="M957.01,188.35L957.01,482.91" style="fill:none;stroke:#32A8F0;stroke-width:2.5" />
<path d="M963.22,200L963.22,446.63" style="fill:none;stroke:#32A9F0;stroke-width:2.5" />
<path d="M969.44,242.57L969.44,425" style="fill:none;stroke:#32AAF0;stroke-width:2.5" />
<path d="M975.65,274.15L975.65,406.48" style="fill:none;stroke:#32ABF0;stroke-width:2.5" />
<path d="M981.86,288.5L981.86,413.87" style="fill:none;stroke:#32ACF0;stroke-width:2.5" />
<path d="M988.08,281.86L988.08,388.88" style="fill:none;stroke:#32ADF0;stroke-width:2.5" />
<path d="M994.29,305.31L994.29,382.24" style="fill:none;stroke:#32AEF0;stroke-width:2.5" />
<path d="M1000.5,307.4L1000.5,380.85" style="fill:none;stroke:#32AFF0;stroke-width:2.5" />
<path d="M1006.7,300.03L1006.7,375.75" style="fill:none;stroke:#32B0F0;stroke-width:2.5" />
<path d="M1012.9,297.81L1012.9,381.68" style="fill:none;stroke:#32B1F0;stroke-width:2.5" />
<path d="M1019.1,289.64L1019.1,384.66" style="fill:none;stroke:#32B2F0;stroke-width:2.5" />
<path d="M1025.4,292.81L1025.4,380" style="fill:none;stroke:#32B3F0;stroke-width:2.5" />
<path d="M1031.6,301.15L1031.6,379.79" style="fill:none;stroke:#32B4F0;stroke-width:2.5" />
<path d="M1037.8,316.08L1037.8,370.79" style="fill:none;stroke:#32B5F0;stroke-width:2.5" />
<path d="M1044,305.19L1044,371" style="fill:none;stroke:#32B6F0;stroke-width:2.5" />
<path d="M1050.2,319.79L1050.2,365.58" style="fill:none;stroke:#32B7F0;stroke-width:2.5" />
<path d="M1056.4,325.71L1056.4,357.89" style="fill:none;stroke:#32B8F0;stroke-width:2.5" />
<path d="M1062.6,330.28L1062.6,354.77" style="fill:none;stroke:#32B9F0;stroke-width:2.5" />
<path d="M1068.9,332.22L1068.9,352.66" style="fill:none;stroke:#32BAF0;stroke-width:2.5" />
<path d="M1075.1,335.39L1075.1,349.76" style="fill:none;stroke:#32BBF0;stroke-width:2.5" />
<path d="M1081.3,333.78L1081.3,345.96" style="fill:none;stroke:#32BCF0;stroke-width:2.5" />
<path d="M1087.5,230.69L1087.5,462" style="fill:none;stroke:#32BDF0;stroke-width:2.5" />
<path d="M1093.7,249.04L1093.7,479.9" style="fill:none;stroke:#32BEF0;stroke-width:2.5" />
<path d="M1099.9,229.88L1099.9,453.75" style="fill:none;stroke:#32BFF0;stroke-width:2.5" />
<path d="M1106.1,242.65L1106.1,435.04" style="fill:none;stroke:#32C0F0;stroke-width:2.5" />
<path d="M1112.4,235.15L1112.4,444.07" style="fill:none;stroke:#32C1F0;stroke-width:2.5" />
<path d="M1118.6,256.77L1118.6,434.23" style="fill:none;stroke:#32C2F0;stroke-width:2.5" />
<path d="M1124.8,254.12L1124.8,424.46" style="fill:none;stroke:#32C3F0;stroke-width:2.5" />
<path d="M1131,230.97L1131,435.03" style="fill:none;stroke:#32C4F0;stroke-width:2.5" />
<path d="M1137.2,228.83L1137.2,454.12" style="fill:none;stroke:#32C5F0;stroke-width:2.5" />
<path d="M1143.4,235.38L1143.4,406.54" style="fill:none;stroke:#32C6F0;stroke-width:2.5" />
<path d="M1149.6,246.29L1149.6,443.81" style="fill:none;stroke:#32C7F0;stroke-width:2.5" />
<path d="M1155.9,245.76L1155.9,426.97" style="fill:none;stroke:#32C8F0;stroke-width:2.5" />
<path d="M1162.1,254.26L1162.1,410.65" style="fill:none;stroke:#32C9F0;stroke-width:2.5" />
<path d="M1168.3,307.77L1168.3,427.11" style="fill:none;stroke:#32CAF0;stroke-width:2.5" />
<path d="M1174.5,279.93L1174.5,368.71" style="fill:none;stroke:#32CBF0;stroke-width:2.5" />
<path d="M1180.7,319.72L1180.7,386.44" style="fill:none;stroke:#32CCF0;stroke-width:2.5" />
<path d="M1186.9,326.7L1186.9,358.03" style="fill:none;stroke:#32CDF0;stroke-width:2.5" />
<path d="M1193.1,329.09L1193.1,350.97" style="fill:none;stroke:#32CEF0;stroke-width:2.5" />
<path d="M1199.4,332.4L1199.4,352.92" style="fill:none;stroke:#32CFF0;stroke-width:2.5" />
<path d="M1205.6,336.6L1205.6,344.15" style="fill:none;stroke:#32D0F0;stroke-width:2.5" />
<path d="M1211.8,337.85L1211.8,342.62" style="fill:none;stroke:#32D1F0;stroke-width:2.5" />
<path d="M1218,339.48L1218,341.59" style="fill:none;stroke:#32D2F0;stroke-width:2.5" />
<path d="M1224.2,340.62L1224.2,340.63" style="fill:none;stroke:#32D3F0;stroke-width:2.5" />
<path d="M1230.4,340.62L1230.4,340.63" style="fill:none;stroke:#32D4F0;stroke-width:2.5" />
<path d="M1236.6,340.62L1236.6,340.63" style="fill:none;stroke:#32D5F0;stroke-width:2.5" />
<path d="M1242.9,340.62L1242.9,340.63" style="fill:none;stroke:#32D6F0;stroke-width:2.5" />
<path d="M1249.1,340.62L1249.1,340.63" style="fill:none;stroke:#32D7F0;stroke-width:2.5" />
</g>
</svg>
